<svg width="487" height="219" viewBox="0 0 487 219" fill="none" xmlns="http://www.w3.org/2000/svg">
<path d="M74.1631 50.0586C79.3151 50.0586 83.6878 51.877 87.2812 55.5137C90.918 59.1071 92.7363 63.4798 92.7363 68.6318V96.4268C92.7363 101.579 90.918 105.973 87.2812 109.61C83.6878 113.203 79.3151 115 74.1631 115H0.519531C0.389648 115 0.259766 114.957 0.129883 114.87C0.0432943 114.74 0 114.589 0 114.416V50.6431C0 50.4699 0.0432943 50.34 0.129883 50.2534C0.259766 50.1235 0.389648 50.0586 0.519531 50.0586H74.1631ZM79.748 66.7485C79.748 65.2332 79.2069 63.9344 78.1245 62.8521C77.0422 61.7264 75.7217 61.1636 74.1631 61.1636H12.9883V103.895H74.1631C75.7217 103.895 77.0422 103.354 78.1245 102.271C79.2069 101.146 79.748 99.8254 79.748 98.3101V66.7485ZM125.207 66.7485V76.9443H195.149C195.322 76.9443 195.452 77.0093 195.539 77.1392C195.668 77.2257 195.733 77.3556 195.733 77.5288V87.5298C195.733 87.703 195.668 87.8545 195.539 87.9844C195.452 88.071 195.322 88.1143 195.149 88.1143H125.207V98.3101C125.207 99.8254 125.748 101.146 126.831 102.271C127.913 103.354 129.233 103.895 130.792 103.895H204.436C204.609 103.895 204.739 103.96 204.825 104.09C204.955 104.176 205.02 104.285 205.02 104.415V114.416C205.02 114.589 204.955 114.74 204.825 114.87C204.739 114.957 204.609 115 204.436 115H130.792C125.64 115 121.246 113.203 117.609 109.61C114.015 105.973 112.219 101.579 112.219 96.4268V68.6318C112.219 63.4798 114.015 59.1071 117.609 55.5137C121.246 51.877 125.64 50.0586 130.792 50.0586H204.436C204.609 50.0586 204.739 50.1235 204.825 50.2534C204.955 50.34 205.02 50.4699 205.02 50.6431V60.644C205.02 60.7739 204.955 60.9038 204.825 61.0337C204.739 61.1203 204.609 61.1636 204.436 61.1636H130.792C129.233 61.1636 127.913 61.7264 126.831 62.8521C125.748 63.9344 125.207 65.2332 125.207 66.7485ZM262.818 110.129C259.398 113.376 255.458 115 250.999 115H225.087C224.957 115 224.827 114.957 224.697 114.87C224.611 114.74 224.567 114.61 224.567 114.48V50.6431C224.567 50.4699 224.611 50.34 224.697 50.2534C224.827 50.1235 224.957 50.0586 225.087 50.0586H236.971C237.144 50.0586 237.274 50.1235 237.361 50.2534C237.491 50.34 237.556 50.4699 237.556 50.6431V103.895H248.336C249.808 103.895 251.107 103.354 252.232 102.271L304.575 50.2534C304.705 50.1235 304.835 50.0586 304.965 50.0586H321.525C321.785 50.0586 321.958 50.1668 322.044 50.3833C322.131 50.5998 322.088 50.8162 321.915 51.0327L262.818 110.129ZM92.8013 135.643V199.48C92.8013 199.61 92.7363 199.74 92.6064 199.87C92.5199 199.957 92.39 200 92.2168 200H80.3975C80.2243 200 80.0728 199.957 79.9429 199.87C79.8563 199.74 79.813 199.61 79.813 199.48V173.114H12.9883V199.48C12.9883 199.61 12.9233 199.74 12.7935 199.87C12.7069 199.957 12.5986 200 12.4688 200H0.584473C0.411296 200 0.259766 199.957 0.129883 199.87C0.0432943 199.74 0 199.61 0 199.48V135.643C0 135.47 0.0432943 135.34 0.129883 135.253C0.259766 135.124 0.411296 135.059 0.584473 135.059H12.4688C12.5986 135.059 12.7069 135.124 12.7935 135.253C12.9233 135.34 12.9883 135.47 12.9883 135.643V161.944H79.813V135.643C79.813 135.47 79.8563 135.34 79.9429 135.253C80.0728 135.124 80.2243 135.059 80.3975 135.059H92.2168C92.39 135.059 92.5199 135.124 92.6064 135.253C92.7363 135.34 92.8013 135.47 92.8013 135.643ZM186.577 135.059C191.729 135.059 196.101 136.877 199.695 140.514C203.332 144.107 205.15 148.48 205.15 153.632V181.427C205.15 186.579 203.332 190.973 199.695 194.61C196.101 198.203 191.729 200 186.577 200H130.922C125.813 200 121.44 198.203 117.804 194.61C114.167 190.973 112.349 186.579 112.349 181.427V153.632C112.349 148.48 114.167 144.107 117.804 140.514C121.44 136.877 125.813 135.059 130.922 135.059H186.577ZM192.162 151.749C192.162 150.233 191.62 148.934 190.538 147.852C189.456 146.726 188.135 146.164 186.577 146.164H130.922C129.407 146.164 128.086 146.726 126.96 147.852C125.878 148.934 125.337 150.233 125.337 151.749V183.31C125.337 184.825 125.878 186.146 126.96 187.271C128.086 188.354 129.407 188.895 130.922 188.895H186.577C188.135 188.895 189.456 188.354 190.538 187.271C191.62 186.146 192.162 184.825 192.162 183.31V151.749ZM237.686 151.749V156.359C237.686 157.918 238.227 159.238 239.309 160.321C240.391 161.403 241.69 161.944 243.206 161.944H298.925C304.034 161.944 308.385 163.763 311.979 167.399C315.615 170.993 317.434 175.366 317.434 180.518V181.427C317.434 186.535 315.615 190.908 311.979 194.545C308.385 198.182 304.034 200 298.925 200H228.918C228.789 200 228.659 199.957 228.529 199.87C228.442 199.74 228.399 199.589 228.399 199.416V189.415C228.399 189.241 228.442 189.111 228.529 189.025C228.659 188.895 228.789 188.83 228.918 188.83H298.925C300.441 188.83 301.739 188.289 302.822 187.207C303.904 186.124 304.445 184.825 304.445 183.31V178.634C304.445 177.119 303.904 175.82 302.822 174.738C301.739 173.612 300.441 173.049 298.925 173.049H243.206C238.097 173.049 233.724 171.253 230.087 167.659C226.494 164.022 224.697 159.65 224.697 154.541V153.567C224.697 148.458 226.494 144.107 230.087 140.514C233.724 136.877 238.097 135.059 243.206 135.059H313.212C313.342 135.059 313.451 135.124 313.537 135.253C313.667 135.34 313.732 135.448 313.732 135.578V145.644C313.732 145.774 313.667 145.904 313.537 146.034C313.451 146.12 313.342 146.164 313.212 146.164H243.206C241.69 146.164 240.391 146.705 239.309 147.787C238.227 148.869 237.686 150.19 237.686 151.749ZM336.916 135.643C336.916 135.47 336.959 135.34 337.046 135.253C337.176 135.124 337.306 135.059 337.436 135.059H429.133C429.263 135.059 429.371 135.124 429.458 135.253C429.587 135.34 429.652 135.47 429.652 135.643V145.644C429.652 145.774 429.587 145.904 429.458 146.034C429.371 146.12 429.263 146.164 429.133 146.164H389.778V199.416C389.778 199.589 389.713 199.74 389.583 199.87C389.497 199.957 389.389 200 389.259 200H377.375C377.201 200 377.05 199.957 376.92 199.87C376.833 199.74 376.79 199.589 376.79 199.416V146.164H337.436C337.306 146.164 337.176 146.12 337.046 146.034C336.959 145.904 336.916 145.774 336.916 145.644V135.643Z" fill="white"/>
<path d="M450.972 171.795C450.421 171.795 449.954 171.994 449.572 172.392C449.189 172.775 448.998 173.234 448.998 173.769L448.998 198.485C448.998 198.547 448.983 198.6 448.952 198.646C448.906 198.677 448.853 198.692 448.792 198.692L445.257 198.692C445.196 198.692 445.15 198.677 445.12 198.646C445.074 198.6 445.051 198.547 445.051 198.485L445.051 173.769C445.051 171.964 445.693 170.418 446.979 169.133C448.264 167.848 449.809 167.206 451.614 167.206L451.936 167.206C453.756 167.206 455.309 167.848 456.594 169.133C457.864 170.418 458.499 171.964 458.499 173.769L458.499 193.437C458.499 193.987 458.69 194.454 459.073 194.836C459.455 195.219 459.922 195.41 460.473 195.41L464.076 195.41L464.076 168.72C464.076 168.674 464.099 168.636 464.145 168.605C464.175 168.56 464.221 168.537 464.282 168.537L467.816 168.537C467.862 168.537 467.908 168.56 467.954 168.605C467.985 168.636 468 168.674 468 168.72L468 199.793C468 199.855 467.985 199.908 467.954 199.954C467.908 199.985 467.862 200 467.816 200L461.115 200C459.31 200 457.772 199.365 456.502 198.095C455.217 196.81 454.575 195.257 454.575 193.437L454.575 173.769C454.575 173.234 454.383 172.775 454.001 172.392C453.603 171.994 453.137 171.795 452.601 171.795L450.972 171.795ZM445.051 134.067C445.051 132.246 445.693 130.701 446.979 129.431C448.248 128.146 449.794 127.503 451.614 127.503L461.437 127.503C463.257 127.503 464.81 128.146 466.095 129.431C467.365 130.701 468 132.246 468 134.067L468 153.734C468 155.54 467.365 157.085 466.095 158.37C464.81 159.655 463.257 160.298 461.437 160.298L451.614 160.298C449.794 160.298 448.248 159.655 446.979 158.37C445.693 157.085 445.051 155.54 445.051 153.734L445.051 134.067ZM450.949 132.093C450.413 132.093 449.954 132.285 449.572 132.667C449.174 133.049 448.975 133.516 448.975 134.067L448.975 153.734C448.975 154.27 449.174 154.736 449.572 155.134C449.954 155.517 450.413 155.708 450.949 155.708L462.102 155.708C462.638 155.708 463.104 155.517 463.502 155.134C463.884 154.736 464.076 154.27 464.076 153.734L464.076 134.067C464.076 133.516 463.884 133.049 463.502 132.667C463.104 132.285 462.638 132.093 462.102 132.093L450.949 132.093ZM450.972 92.3911C450.421 92.3911 449.954 92.59 449.572 92.9878C449.189 93.3703 448.998 93.8293 448.998 94.3647L448.998 119.081C448.998 119.142 448.983 119.196 448.952 119.242C448.906 119.272 448.853 119.288 448.792 119.288L445.257 119.288C445.196 119.288 445.15 119.272 445.12 119.242C445.074 119.196 445.051 119.142 445.051 119.081L445.051 94.3647C445.051 92.5594 445.693 91.0142 446.979 89.729C448.264 88.4438 449.809 87.8013 451.614 87.8013L451.936 87.8013C453.756 87.8013 455.309 88.4438 456.594 89.729C457.864 91.0142 458.499 92.5594 458.499 94.3647L458.499 114.032C458.499 114.583 458.69 115.05 459.073 115.432C459.455 115.815 459.922 116.006 460.473 116.006L464.076 116.006L464.076 89.3159C464.076 89.27 464.099 89.2318 464.145 89.2012C464.175 89.1553 464.221 89.1323 464.282 89.1323L467.816 89.1323C467.862 89.1323 467.908 89.1553 467.954 89.2012C467.985 89.2318 468 89.27 468 89.3159L468 120.389C468 120.45 467.985 120.504 467.954 120.55C467.908 120.58 467.862 120.596 467.816 120.596L461.115 120.596C459.31 120.596 457.772 119.961 456.502 118.691C455.217 117.406 454.575 115.853 454.575 114.032L454.575 94.3647C454.575 93.8293 454.383 93.3703 454.001 92.9878C453.603 92.59 453.137 92.3911 452.601 92.3911L450.972 92.3911ZM451.591 48.0991L451.936 48.0991C453.71 48.0991 455.24 48.7264 456.525 49.981C457.795 48.7264 459.325 48.0991 461.115 48.0991L461.437 48.0991C463.242 48.0991 464.787 48.7417 466.072 50.0269C467.357 51.2967 468 52.842 468 54.6626L468 80.687C468 80.7482 467.977 80.8018 467.931 80.8477C467.885 80.8783 467.839 80.8936 467.793 80.8936L464.259 80.8936C464.198 80.8936 464.152 80.8706 464.122 80.8247C464.076 80.7788 464.053 80.7329 464.053 80.687L464.053 54.6626C464.053 54.1118 463.861 53.6452 463.479 53.2627C463.097 52.8802 462.63 52.689 462.079 52.689L460.45 52.689C459.914 52.689 459.455 52.8802 459.073 53.2627C458.675 53.6452 458.476 54.1118 458.476 54.6626L458.476 77.4053C458.476 77.4665 458.461 77.52 458.43 77.5659C458.384 77.5965 458.338 77.6118 458.292 77.6118L454.735 77.6118C454.689 77.6118 454.651 77.5965 454.621 77.5659C454.575 77.52 454.552 77.4665 454.552 77.4053L454.552 54.6626C454.552 54.1118 454.361 53.6452 453.978 53.2627C453.596 52.8802 453.129 52.689 452.578 52.689L450.949 52.689C450.398 52.689 449.931 52.8802 449.549 53.2627C449.166 53.6452 448.975 54.1118 448.975 54.6626L448.975 80.687C448.975 80.7329 448.96 80.7788 448.929 80.8247C448.883 80.8706 448.83 80.8936 448.769 80.8936L445.234 80.8936C445.188 80.8936 445.15 80.8706 445.12 80.8247C445.074 80.7788 445.051 80.7329 445.051 80.687L445.051 54.6626C445.051 52.842 445.693 51.2967 446.979 50.0269C448.248 48.7417 449.786 48.0991 451.591 48.0991Z" fill="#B4FF39"/>
</svg>
